<?xml version="1.0" standalone="no"?><!DOCTYPE svg PUBLIC "-//W3C//DTD SVG 1.1//EN" "http://www.w3.org/Graphics/SVG/1.1/DTD/svg11.dtd"><svg t="1707918040444" class="icon" viewBox="0 0 1024 1024" version="1.1" xmlns="http://www.w3.org/2000/svg" p-id="8737" xmlns:xlink="http://www.w3.org/1999/xlink" width="200" height="200"><path d="M343.04 536.32l386.133333-386.133333c13.226667-13.226667 13.226667-34.986667 0-48.213334-13.226667-13.226667-34.986667-13.226667-48.213333 0l-386.133333 386.133334c-13.226667 13.226667-13.226667 34.986667 0 48.213333 13.226667 13.226667 34.986667 13.226667 48.213333 0z" fill="#4C4C4C" p-id="8738"></path><path d="M729.173333 874.24l-386.133333-386.133333c-13.226667-13.226667-34.986667-13.226667-48.213333 0-13.226667 13.226667-13.226667 34.986667 0 48.213333l386.133333 386.133333c13.226667 13.226667 34.986667 13.226667 48.213333 0 13.226667-13.653333 13.226667-34.986667 0-48.213333z" fill="#4C4C4C" p-id="8739"></path></svg>